<svg width="13" height="12" viewBox="0 0 13 12" fill="none" xmlns="http://www.w3.org/2000/svg">
<path id="Vector" d="M10.9111 1.95588V1.45588V1.95588ZM11.6001 2.51514H11.1001V2.51514L11.6001 2.51514ZM1.40015 2.51514H0.900146H1.40015ZM2.08917 1.95588L2.08917 2.45588L2.08917 1.95588ZM10.9111 10.99V10.49V10.99ZM11.6001 10.4307H12.1001V10.4307L11.6001 10.4307ZM3.78812 9.61041H4.28812H3.78812ZM3.09833 9.05115L3.09833 9.55115H3.09878L3.09833 9.05115ZM1.66546 9.26897L1.3496 9.65657H1.3496L1.66546 9.26897ZM4.65253 10.99V11.49V10.99ZM3.16046 10.4852L2.84544 10.8735L3.16046 10.4852ZM1.74591 4.32353C1.46977 4.32353 1.24591 4.54739 1.24591 4.82353C1.24591 5.09967 1.46977 5.32353 1.74591 5.32353V4.32353ZM11.5137 5.32353C11.7898 5.32353 12.0137 5.09967 12.0137 4.82353C12.0137 4.54739 11.7898 4.32353 11.5137 4.32353V5.32353ZM4.06072 3.11467C4.06072 3.39081 4.28458 3.61467 4.56072 3.61467C4.83686 3.61467 5.06072 3.39081 5.06072 3.11467H4.06072ZM5.06072 1C5.06072 0.723858 4.83686 0.5 4.56072 0.5C4.28458 0.5 4.06072 0.723858 4.06072 1H5.06072ZM8.20987 3.11467C8.20987 3.39081 8.43373 3.61467 8.70987 3.61467C8.98601 3.61467 9.20987 3.39081 9.20987 3.11467H8.20987ZM9.20987 1C9.20987 0.723858 8.98601 0.5 8.70987 0.5C8.43373 0.5 8.20987 0.723858 8.20987 1H9.20987ZM4.51201 6.23529C4.23587 6.23529 4.01201 6.45915 4.01201 6.73529C4.01201 7.01144 4.23587 7.23529 4.51201 7.23529V6.23529ZM4.59845 7.23529C4.87459 7.23529 5.09845 7.01144 5.09845 6.73529C5.09845 6.45915 4.87459 6.23529 4.59845 6.23529V7.23529ZM4.51201 7.85294C4.23587 7.85294 4.01201 8.0768 4.01201 8.35294C4.01201 8.62908 4.23587 8.85294 4.51201 8.85294V7.85294ZM4.59845 8.85294C4.87459 8.85294 5.09845 8.62908 5.09845 8.35294C5.09845 8.0768 4.87459 7.85294 4.59845 7.85294V8.85294ZM6.58659 6.23529C6.31044 6.23529 6.08659 6.45915 6.08659 6.73529C6.08659 7.01144 6.31044 7.23529 6.58659 7.23529V6.23529ZM6.67303 7.23529C6.94917 7.23529 7.17303 7.01144 7.17303 6.73529C7.17303 6.45915 6.94917 6.23529 6.67303 6.23529V7.23529ZM6.58659 7.85294C6.31044 7.85294 6.08659 8.0768 6.08659 8.35294C6.08659 8.62908 6.31044 8.85294 6.58659 8.85294V7.85294ZM6.67303 8.85294C6.94917 8.85294 7.17303 8.62908 7.17303 8.35294C7.17303 8.0768 6.94917 7.85294 6.67303 7.85294V8.85294ZM8.66116 6.23529C8.38502 6.23529 8.16116 6.45915 8.16116 6.73529C8.16116 7.01144 8.38502 7.23529 8.66116 7.23529V6.23529ZM8.7476 7.23529C9.02375 7.23529 9.2476 7.01144 9.2476 6.73529C9.2476 6.45915 9.02375 6.23529 8.7476 6.23529V7.23529ZM8.66116 7.85294C8.38502 7.85294 8.16116 8.0768 8.16116 8.35294C8.16116 8.62908 8.38502 8.85294 8.66116 8.85294V7.85294ZM8.7476 8.85294C9.02375 8.85294 9.2476 8.62908 9.2476 8.35294C9.2476 8.0768 9.02375 7.85294 8.7476 7.85294V8.85294ZM10.9111 10.49H4.65253V11.49H10.9111V10.49ZM1.90015 8.73901V2.51514H0.900146V8.73901H1.90015ZM2.08917 2.45588L10.9111 2.45588V1.45588L2.08917 1.45588L2.08917 2.45588ZM11.1001 2.51514L11.1001 10.4307L12.1001 10.4307L12.1001 2.51514L11.1001 2.51514ZM10.9111 2.45588C10.994 2.45588 11.0532 2.48349 11.0832 2.5079C11.1123 2.53149 11.1001 2.53686 11.1001 2.51514L12.1001 2.51514C12.1001 1.8377 11.4653 1.45588 10.9111 1.45588V2.45588ZM1.90015 2.51514C1.90015 2.53686 1.88799 2.53149 1.91706 2.5079C1.94713 2.48349 2.00632 2.45588 2.08917 2.45588L2.08917 1.45588C1.53502 1.45588 0.900147 1.8377 0.900146 2.51514L1.90015 2.51514ZM3.47548 10.097C2.98931 9.70252 2.33972 9.17344 1.98132 8.88137L1.3496 9.65657C1.70802 9.94865 2.35835 10.4783 2.84544 10.8735L3.47548 10.097ZM10.9111 11.49C11.4653 11.49 12.1001 11.1082 12.1001 10.4307L11.1001 10.4307C11.1001 10.409 11.1123 10.4144 11.0832 10.438C11.0532 10.4624 10.994 10.49 10.9111 10.49V11.49ZM3.28812 9.61041L3.28812 11H4.28812V9.61041H3.28812ZM1.40015 9.55115L3.09833 9.55115L3.09833 8.55115L1.40015 8.55115L1.40015 9.55115ZM4.28812 9.61041C4.28812 8.93242 3.65235 8.55064 3.09787 8.55115L3.09878 9.55115C3.1817 9.55108 3.24101 9.57868 3.27115 9.60312C3.3003 9.62675 3.28812 9.63215 3.28812 9.61041H4.28812ZM0.900146 8.73901C0.900146 9.1043 1.07476 9.4326 1.3496 9.65657L1.98132 8.88137C1.91592 8.82808 1.90015 8.77451 1.90015 8.73901H0.900146ZM4.65253 10.49C4.48268 10.49 4.25133 10.4481 4.01687 10.369C3.78023 10.2891 3.58635 10.1869 3.47548 10.097L2.84544 10.8735C3.08002 11.0638 3.39349 11.214 3.69717 11.3165C4.00303 11.4197 4.34499 11.49 4.65253 11.49L4.65253 10.49ZM1.74591 5.32353H11.5137V4.32353H1.74591V5.32353ZM5.06072 3.11467V1H4.06072V3.11467H5.06072ZM9.20987 3.11467V1H8.20987V3.11467H9.20987ZM4.51201 7.23529H4.59845V6.23529H4.51201V7.23529ZM4.51201 8.85294H4.59845V7.85294H4.51201V8.85294ZM6.58659 7.23529H6.67303V6.23529H6.58659V7.23529ZM6.58659 8.85294H6.67303V7.85294H6.58659V8.85294ZM8.66116 7.23529H8.7476V6.23529H8.66116V7.23529ZM8.66116 8.85294H8.7476V7.85294H8.66116V8.85294Z" fill="#00ADDE"/>
</svg>
