<svg width="50" height="49" viewBox="0 0 50 49" fill="none" xmlns="http://www.w3.org/2000/svg">
<rect y="0.562866" width="50" height="48.2036" rx="15" fill="#EDA1AB" fill-opacity="0.15"/>
<path d="M19 26.5928H27V24.6646H19V26.5928ZM19 23.7006H31V21.7724H19V23.7006ZM19 20.8084H31V18.8802H19V20.8084ZM15 34.3054V16.9521C15 16.4218 15.196 15.9681 15.588 15.5908C15.98 15.2135 16.4507 15.0246 17 15.0239H33C33.55 15.0239 34.021 15.2129 34.413 15.5908C34.805 15.9687 35.0007 16.4225 35 16.9521V28.5209C35 29.0512 34.8043 29.5052 34.413 29.8832C34.0217 30.2611 33.5507 30.4497 33 30.4491H19L15 34.3054ZM18.15 28.5209H33V16.9521H17V29.6055L18.15 28.5209Z" fill="black"/>
</svg>
