<svg width="18" height="18" viewBox="0 0 18 18" fill="none" xmlns="http://www.w3.org/2000/svg">
<path d="M5 8C4.73478 8 4.48043 8.10536 4.29289 8.29289C4.10536 8.48043 4 8.73478 4 9C4 9.26522 4.10536 9.51957 4.29289 9.70711C4.48043 9.89464 4.73478 10 5 10H12.96C13.2252 10 13.4796 9.89464 13.6671 9.70711C13.8546 9.51957 13.96 9.26522 13.96 9C13.96 8.73478 13.8546 8.48043 13.6671 8.29289C13.4796 8.10536 13.2252 8 12.96 8H5ZM5.04 12.067C4.77478 12.067 4.52043 12.1724 4.33289 12.3599C4.14536 12.5474 4.04 12.8018 4.04 13.067C4.04 13.3322 4.14536 13.5866 4.33289 13.7741C4.52043 13.9616 4.77478 14.067 5.04 14.067H13C13.2652 14.067 13.5196 13.9616 13.7071 13.7741C13.8946 13.5866 14 13.3322 14 13.067C14 12.8018 13.8946 12.5474 13.7071 12.3599C13.5196 12.1724 13.2652 12.067 13 12.067H5.04Z" fill="#E4E4E4"/>
<path fill-rule="evenodd" clip-rule="evenodd" d="M2 0C1.46957 0 0.960859 0.210714 0.585786 0.585786C0.210714 0.960859 0 1.46957 0 2V16C0 16.5304 0.210714 17.0391 0.585786 17.4142C0.960859 17.7893 1.46957 18 2 18H16C16.5304 18 17.0391 17.7893 17.4142 17.4142C17.7893 17.0391 18 16.5304 18 16V2C18 1.46957 17.7893 0.960859 17.4142 0.585786C17.0391 0.210714 16.5304 0 16 0H2ZM4 2H2V16H16V2H14V3C14 3.79565 13.6839 4.55871 13.1213 5.12132C12.5587 5.68393 11.7956 6 11 6H7C6.20435 6 5.44129 5.68393 4.87868 5.12132C4.31607 4.55871 4 3.79565 4 3V2ZM6 2V3C6 3.26522 6.10536 3.51957 6.29289 3.70711C6.48043 3.89464 6.73478 4 7 4H11C11.2652 4 11.5196 3.89464 11.7071 3.70711C11.8946 3.51957 12 3.26522 12 3V2H6Z" fill="#E4E4E4"/>
</svg>
