<svg width="24" height="24" viewBox="0 0 24 24" fill="none" xmlns="http://www.w3.org/2000/svg">
<path d="M8 11C7.73478 11 7.48043 11.1054 7.29289 11.2929C7.10536 11.4804 7 11.7348 7 12C7 12.2652 7.10536 12.5196 7.29289 12.7071C7.48043 12.8946 7.73478 13 8 13H15.96C16.2252 13 16.4796 12.8946 16.6671 12.7071C16.8546 12.5196 16.96 12.2652 16.96 12C16.96 11.7348 16.8546 11.4804 16.6671 11.2929C16.4796 11.1054 16.2252 11 15.96 11H8ZM8.04 15.067C7.77478 15.067 7.52043 15.1724 7.33289 15.3599C7.14536 15.5474 7.04 15.8018 7.04 16.067C7.04 16.3322 7.14536 16.5866 7.33289 16.7741C7.52043 16.9616 7.77478 17.067 8.04 17.067H16C16.2652 17.067 16.5196 16.9616 16.7071 16.7741C16.8946 16.5866 17 16.3322 17 16.067C17 15.8018 16.8946 15.5474 16.7071 15.3599C16.5196 15.1724 16.2652 15.067 16 15.067H8.04Z" fill="#00ADDE"/>
<path fill-rule="evenodd" clip-rule="evenodd" d="M5 3C4.46957 3 3.96086 3.21071 3.58579 3.58579C3.21071 3.96086 3 4.46957 3 5V19C3 19.5304 3.21071 20.0391 3.58579 20.4142C3.96086 20.7893 4.46957 21 5 21H19C19.5304 21 20.0391 20.7893 20.4142 20.4142C20.7893 20.0391 21 19.5304 21 19V5C21 4.46957 20.7893 3.96086 20.4142 3.58579C20.0391 3.21071 19.5304 3 19 3H5ZM7 5H5V19H19V5H17V6C17 6.79565 16.6839 7.55871 16.1213 8.12132C15.5587 8.68393 14.7956 9 14 9H10C9.20435 9 8.44129 8.68393 7.87868 8.12132C7.31607 7.55871 7 6.79565 7 6V5ZM9 5V6C9 6.26522 9.10536 6.51957 9.29289 6.70711C9.48043 6.89464 9.73478 7 10 7H14C14.2652 7 14.5196 6.89464 14.7071 6.70711C14.8946 6.51957 15 6.26522 15 6V5H9Z" fill="#00ADDE"/>
</svg>
