<svg width="13" height="12" viewBox="0 0 13 12" fill="none" xmlns="http://www.w3.org/2000/svg">
<g id="Group 43">
<path id="Vector" d="M11.8621 0.981684C11.6554 0.798543 11.3394 0.817621 11.1563 1.02429C10.9731 1.23097 10.9922 1.54698 11.1989 1.73012L11.8621 0.981684ZM11.6144 3.08007L11.946 3.45429L11.9634 3.43891L11.9793 3.42199L11.6144 3.08007ZM11.2002 1.73126C11.4069 1.9144 11.7229 1.89533 11.906 1.68865C12.0892 1.48198 12.0701 1.16597 11.8634 0.982831L11.2002 1.73126ZM9.58607 1.28267L9.28971 0.879966L9.27144 0.893409L9.25447 0.908451L9.58607 1.28267ZM8.49505 1.58139C8.28838 1.76453 8.2693 2.08054 8.45244 2.28721C8.63558 2.49389 8.95159 2.51296 9.15826 2.32982L8.49505 1.58139ZM10.5234 3.37879C10.3167 3.56193 10.2977 3.87794 10.4808 4.08461C10.664 4.29129 10.98 4.31037 11.1866 4.12723L10.5234 3.37879ZM1.33463 1.73012C1.5413 1.54698 1.56038 1.23097 1.37724 1.02429C1.1941 0.817621 0.878094 0.798543 0.67142 0.981684L1.33463 1.73012ZM0.919088 3.08007L0.55427 3.42199L0.570127 3.43891L0.587483 3.45429L0.919088 3.08007ZM0.670126 0.982831C0.463452 1.16597 0.444374 1.48198 0.627514 1.68865C0.810655 1.89533 1.12666 1.9144 1.33334 1.73126L0.670126 0.982831ZM2.94746 1.28267L3.27906 0.908451L3.26209 0.893409L3.24382 0.879966L2.94746 1.28267ZM3.37526 2.32982C3.58194 2.51296 3.89794 2.49389 4.08108 2.28721C4.26423 2.08054 4.24515 1.76453 4.03847 1.58139L3.37526 2.32982ZM1.3469 4.12723C1.55357 4.31037 1.86958 4.29129 2.05272 4.08461C2.23586 3.87794 2.21678 3.56193 2.01011 3.37879L1.3469 4.12723ZM9.56118 11.2729C9.71192 11.5043 10.0217 11.5697 10.2531 11.4189C10.4844 11.2682 10.5498 10.9584 10.399 10.7271L9.56118 11.2729ZM2.22081 10.7271C2.07006 10.9584 2.13542 11.2682 2.36679 11.4189C2.59815 11.5697 2.90792 11.5043 3.05866 11.2729L2.22081 10.7271ZM6.35189 5.94021H5.85189V6.44021H6.35189V5.94021ZM6.85189 3.12067C6.85189 2.84453 6.62803 2.62067 6.35189 2.62067C6.07575 2.62067 5.85189 2.84453 5.85189 3.12067H6.85189ZM8.11958 6.44021C8.39572 6.44021 8.61958 6.21635 8.61958 5.94021C8.61958 5.66406 8.39572 5.44021 8.11958 5.44021V6.44021ZM11.1989 1.73012C11.1991 1.73033 11.1992 1.73041 11.1993 1.73046L11.863 0.982485C11.8626 0.98216 11.8623 0.981854 11.8621 0.981684L11.1989 1.73012ZM11.1993 1.73046C11.5091 2.0054 11.4967 2.47457 11.2496 2.73815L11.9793 3.42199C12.5766 2.78466 12.6309 1.66387 11.863 0.982485L11.1993 1.73046ZM11.8634 0.982831C11.8633 0.982732 11.8629 0.98237 11.8625 0.98203L11.1998 1.73092L11.2002 1.73126L11.8634 0.982831ZM11.8625 0.98203C11.4857 0.648613 11.0036 0.50726 10.5547 0.500276C10.1085 0.493335 9.64564 0.618019 9.28971 0.879966L9.88244 1.68537C10.0348 1.57321 10.2747 1.49604 10.5391 1.50016C10.8008 1.50423 11.037 1.58683 11.1998 1.73092L11.8625 0.98203ZM9.25447 0.908451L8.49505 1.58139L9.15826 2.32982L9.91768 1.65688L9.25447 0.908451ZM11.2828 2.70585L10.5234 3.37879L11.1866 4.12723L11.946 3.45429L11.2828 2.70585ZM0.67142 0.981684C0.67111 0.981959 0.670808 0.982226 0.670517 0.982485L1.33424 1.73046C1.33438 1.73034 1.33451 1.73022 1.33463 1.73012L0.67142 0.981684ZM0.670517 0.982485C-0.0973696 1.66387 -0.0430552 2.78466 0.55427 3.42199L1.28391 2.73815C1.03687 2.47457 1.0244 2.0054 1.33424 1.73046L0.670517 0.982485ZM1.33334 1.73126C1.33346 1.73116 1.33359 1.73104 1.33373 1.73092L0.67103 0.98203C0.670738 0.982288 0.670436 0.982556 0.670126 0.982831L1.33334 1.73126ZM1.33373 1.73092C1.49655 1.58683 1.73278 1.50423 1.99442 1.50016C2.25879 1.49604 2.49869 1.57321 2.65109 1.68537L3.24382 0.879966C2.88789 0.618019 2.42505 0.493335 1.97887 0.500276C1.52996 0.50726 1.04781 0.648613 0.67103 0.98203L1.33373 1.73092ZM2.61585 1.65688L3.37526 2.32982L4.03847 1.58139L3.27906 0.908451L2.61585 1.65688ZM0.587483 3.45429L1.3469 4.12723L2.01011 3.37879L1.25069 2.70585L0.587483 3.45429ZM8.40773 9.50262L9.56118 11.2729L10.399 10.7271L9.24559 8.95672L8.40773 9.50262ZM3.37425 8.95672L2.22081 10.7271L3.05866 11.2729L4.21211 9.50262L3.37425 8.95672ZM6.85189 5.94021V3.12067H5.85189V5.94021H6.85189ZM6.35189 6.44021H8.11958V5.44021H6.35189V6.44021ZM10.8014 5.70525C10.8014 7.75304 8.9074 9.51287 6.44027 9.51287V10.5129C9.34263 10.5129 11.8014 8.41553 11.8014 5.70525H10.8014ZM6.44027 9.51287C3.97315 9.51287 2.07912 7.75304 2.07912 5.70525H1.07912C1.07912 8.41553 3.53792 10.5129 6.44027 10.5129V9.51287ZM2.07912 5.70525C2.07912 3.65745 3.97315 1.89762 6.44027 1.89762V0.897619C3.53792 0.897619 1.07912 2.99496 1.07912 5.70525H2.07912ZM6.44027 1.89762C8.9074 1.89762 10.8014 3.65745 10.8014 5.70525H11.8014C11.8014 2.99496 9.34263 0.897619 6.44027 0.897619V1.89762Z" fill="#00ADDE"/>
</g>
</svg>
