<svg width="50" height="50" viewBox="0 0 50 50" fill="none" xmlns="http://www.w3.org/2000/svg">
<circle cx="25" cy="25" r="25" fill="#D22B8B"/>
<g clip-path="url(#clip0_120_3640)">
<path d="M17.5 17.5H32.5C32.721 17.5 32.933 17.5878 33.0893 17.7441C33.2456 17.9004 33.3334 18.1123 33.3334 18.3333V31.6667C33.3334 31.8877 33.2456 32.0996 33.0893 32.2559C32.933 32.4122 32.721 32.5 32.5 32.5H17.5C17.279 32.5 17.067 32.4122 16.9108 32.2559C16.7545 32.0996 16.6667 31.8877 16.6667 31.6667V18.3333C16.6667 18.1123 16.7545 17.9004 16.9108 17.7441C17.067 17.5878 17.279 17.5 17.5 17.5ZM25.05 24.7358L19.7067 20.1983L18.6275 21.4683L25.0609 26.9308L31.3784 21.4642L30.2884 20.2033L25.0509 24.7358H25.05Z" fill="white"/>
</g>
<defs>
<clipPath id="clip0_120_3640">
<rect width="20" height="20" fill="white" transform="translate(15 15)"/>
</clipPath>
</defs>
</svg>
