<svg width="19" height="19" viewBox="0 0 19 19" fill="none" xmlns="http://www.w3.org/2000/svg">
<g clip-path="url(#clip0_77_225)">
<path d="M8.015 17.9613C3.74 17.1963 0.5 13.5063 0.5 9.05127C0.5 4.10127 4.55 0.0512695 9.5 0.0512695C14.45 0.0512695 18.5 4.10127 18.5 9.05127C18.5 13.5063 15.26 17.1963 10.985 17.9613L10.49 17.5563H8.51L8.015 17.9613Z" fill="url(#paint0_linear_77_225)"/>
<path d="M13.0101 11.5713L13.4151 9.05126H11.0301V7.29626C11.0301 6.57626 11.3001 6.03626 12.3801 6.03626H13.5501V3.74126C12.9201 3.65126 12.2001 3.56126 11.5701 3.56126C9.50006 3.56126 8.06006 4.82126 8.06006 7.07126V9.05126H5.81006V11.5713H8.06006V17.9163C8.55506 18.0063 9.05006 18.0513 9.54506 18.0513C10.0401 18.0513 10.5351 18.0063 11.0301 17.9163V11.5713H13.0101Z" fill="white"/>
</g>
<defs>
<linearGradient id="paint0_linear_77_225" x1="9.50045" y1="17.4253" x2="9.50045" y2="0.047954" gradientUnits="userSpaceOnUse">
<stop stop-color="#0062E0"/>
<stop offset="1" stop-color="#19AFFF"/>
</linearGradient>
<clipPath id="clip0_77_225">
<rect width="18" height="18" fill="white" transform="translate(0.5 0.0512695)"/>
</clipPath>
</defs>
</svg>
