<svg width="19" height="19" viewBox="0 0 19 19" fill="none" xmlns="http://www.w3.org/2000/svg">
<path d="M17.3759 9.22617C17.3759 8.57867 17.3223 8.10617 17.2063 7.61618H9.66162V10.5386H14.0902C14.0009 11.2649 13.5188 12.3587 12.4473 13.0936L12.4323 13.1915L14.8178 15.0025L14.983 15.0187C16.5009 13.6449 17.3759 11.6237 17.3759 9.22617Z" fill="#4285F4"/>
<path d="M9.66098 16.9263C11.8306 16.9263 13.652 16.2262 14.9824 15.0188L12.4467 13.0937C11.7681 13.5574 10.8574 13.8812 9.66098 13.8812C7.53601 13.8812 5.73246 12.5075 5.08954 10.6087L4.9953 10.6165L2.51486 12.4978L2.48242 12.5862C3.80383 15.1587 6.51811 16.9263 9.66098 16.9263Z" fill="#34A853"/>
<path d="M5.08998 10.6088C4.92034 10.1188 4.82216 9.59373 4.82216 9.05126C4.82216 8.50872 4.92034 7.98374 5.08106 7.49375L5.07656 7.38939L2.56503 5.47792L2.48285 5.51622C1.93824 6.58374 1.62573 7.78251 1.62573 9.05126C1.62573 10.32 1.93824 11.5187 2.48285 12.5862L5.08998 10.6088Z" fill="#FBBC05"/>
<path d="M9.66103 4.22125C11.1699 4.22125 12.1878 4.86 12.7682 5.39378L15.036 3.22377C13.6432 1.95502 11.8306 1.17627 9.66103 1.17627C6.51814 1.17627 3.80384 2.94376 2.48242 5.51623L5.08063 7.49376C5.73248 5.59502 7.53604 4.22125 9.66103 4.22125Z" fill="#EB4335"/>
</svg>
