<svg width="24" height="24" viewBox="0 0 24 24" fill="none" xmlns="http://www.w3.org/2000/svg">
<path d="M11.861 2.38719C12.3449 2.06654 12.912 1.89264 13.4935 1.88664C14.0749 1.88063 14.6455 2.04279 15.136 2.35338L19.29 4.98269H21C21.2652 4.98269 21.5196 5.08746 21.7071 5.27395C21.8946 5.46045 22 5.71339 22 5.97713V14.9271C22 15.1909 21.8946 15.4438 21.7071 15.6303C21.5196 15.8168 21.2652 15.9216 21 15.9216H19.48C19.5121 16.4058 19.4091 16.8895 19.1823 17.3192C18.9556 17.7489 18.6139 18.108 18.195 18.357L13.102 21.396C12.7891 21.5826 12.4308 21.6804 12.0659 21.679C11.701 21.6776 11.3435 21.577 11.032 21.388C10.6812 21.6963 10.2327 21.8724 9.76472 21.8857C9.29675 21.8989 8.83892 21.7485 8.471 21.4606L3.331 17.4441C2.97171 17.1637 2.71972 16.7695 2.61693 16.327C2.51415 15.8845 2.56675 15.4203 2.766 15.0117C2.52721 14.8255 2.33415 14.5877 2.20143 14.3163C2.06872 14.045 1.99984 13.7472 2 13.4454V5.97713C2 5.71339 2.10536 5.46045 2.29289 5.27395C2.48043 5.08746 2.73478 4.98269 3 4.98269H7.947L11.861 2.38719ZM4.173 13.5807L4.865 12.979C5.45638 12.4646 6.22711 12.2014 7.01154 12.246C7.79596 12.2907 8.53148 12.6395 9.06 13.2177L11.762 16.1732C12.1857 16.6367 12.452 17.221 12.5231 17.8434C12.5941 18.4658 12.4664 19.0946 12.158 19.6408L17.167 16.6525C17.2976 16.5737 17.3967 16.4524 17.4474 16.3092C17.498 16.1659 17.4972 16.0096 17.445 15.8669L13.018 9.70331C12.8968 9.53439 12.7254 9.40742 12.528 9.34019C12.3306 9.27296 12.1169 9.26884 11.917 9.32841L9.431 10.0693C8.91221 10.224 8.36097 10.2362 7.83577 10.1045C7.31058 9.97287 6.83102 9.70227 6.448 9.32145L6.155 9.03107C5.88925 8.76684 5.70374 8.43349 5.61973 8.06924C5.53572 7.70499 5.55661 7.32457 5.68 6.97158H4V13.4454L4.173 13.5807ZM14.063 4.032C13.8993 3.92829 13.7088 3.8742 13.5147 3.87632C13.3206 3.87844 13.1314 3.93668 12.97 4.04393L7.57 7.62393L7.862 7.9153C7.98981 8.04225 8.14981 8.13239 8.325 8.17617C8.50019 8.21994 8.68403 8.21571 8.857 8.16392L11.342 7.42305C11.9416 7.24424 12.5825 7.25645 13.1748 7.45796C13.7671 7.65946 14.2812 8.04018 14.645 8.54678L18.515 13.9327H20V6.97158H19.291C18.9105 6.97153 18.5379 6.86355 18.217 6.66032L14.063 4.032ZM6.181 14.4747L4.565 15.8808L9.705 19.8974L10.41 18.6722C10.5148 18.4897 10.5587 18.279 10.5355 18.0701C10.5123 17.8613 10.4232 17.6651 10.281 17.5097L7.58 14.5542C7.40384 14.3616 7.15873 14.2454 6.89734 14.2305C6.63595 14.2156 6.37811 14.3033 6.181 14.4747Z" fill="#FBC046"/>
</svg>
