<svg width="36" height="36" viewBox="0 0 36 36" fill="none" xmlns="http://www.w3.org/2000/svg">
<path d="M26.3617 0H9.67976C8.99724 0 8.44409 0.553148 8.44409 1.23567V7.29056C8.44409 7.97309 8.99724 8.52623 9.67976 8.52623H26.3617C27.0442 8.52623 27.5974 7.97309 27.5974 7.29056V1.23567C27.5974 0.553148 27.0442 0 26.3617 0ZM25.126 6.05489H10.9154V2.47141H25.1259V6.05489H25.126Z" fill="#6ED1AF"/>
<path d="M24.5903 7.33203H22.1189V13.0162H24.5903V7.33203Z" fill="#6ED1AF"/>
<path d="M13.8811 7.33203H11.4097V13.0162H13.8811V7.33203Z" fill="#6ED1AF"/>
<path d="M26.9795 11.7803H9.0207C7.88509 11.7803 6.96118 12.7042 6.96118 13.8398V33.9405C6.96118 35.0761 7.88509 36 9.0207 36H26.9795C28.1151 36 29.039 35.0761 29.039 33.9405V13.8398C29.039 12.7042 28.1151 11.7803 26.9795 11.7803ZM26.5676 33.5286H9.4326V14.2517H26.5676V33.5286Z" fill="#6ED1AF"/>
<path d="M18.0001 18.2471C17.3176 18.2471 16.7644 18.8002 16.7644 19.4827V28.2974C16.7644 28.9799 17.3176 29.5331 18.0001 29.5331C18.6826 29.5331 19.2357 28.9799 19.2357 28.2974V19.4827C19.2357 18.8002 18.6826 18.2471 18.0001 18.2471Z" fill="#6ED1AF"/>
<path d="M22.4073 22.6545H13.5926C12.9101 22.6545 12.3569 23.2076 12.3569 23.8902C12.3569 24.5727 12.9101 25.1258 13.5926 25.1258H22.4073C23.0902 25.1258 23.6429 24.5727 23.6429 23.8902C23.6429 23.2076 23.0898 22.6545 22.4073 22.6545Z" fill="#6ED1AF"/>
</svg>
