<svg width="25" height="25" viewBox="0 0 25 25" fill="none" xmlns="http://www.w3.org/2000/svg">
<g clip-path="url(#clip0_238_1022)">
<path d="M18.0743 0.5H6.95305C6.49804 0.5 6.12927 0.868766 6.12927 1.32378V5.36038C6.12927 5.81539 6.49804 6.18416 6.95305 6.18416H18.0743C18.5293 6.18416 18.8981 5.81539 18.8981 5.36038V1.32378C18.8981 0.868766 18.5293 0.5 18.0743 0.5ZM17.2506 4.53659H7.77683V2.14761H17.2505V4.53659H17.2506Z" fill="#4fd2c2"/>
<path d="M16.8936 5.388H15.246V9.17747H16.8936V5.388Z" fill="#4fd2c2"/>
<path d="M9.75405 5.388H8.10645V9.17747H9.75405V5.388Z" fill="#4fd2c2"/>
<path d="M18.4863 8.35352H6.51376C5.75668 8.35352 5.14075 8.96945 5.14075 9.72653V23.127C5.14075 23.8841 5.75668 24.5 6.51376 24.5H18.4863C19.2434 24.5 19.8593 23.8841 19.8593 23.127V9.72653C19.8593 8.96945 19.2434 8.35352 18.4863 8.35352ZM18.2117 22.8524H6.78836V10.0011H18.2117V22.8524Z" fill="#4fd2c2"/>
<path d="M12.4999 12.6647C12.0449 12.6647 11.6761 13.0335 11.6761 13.4885V19.3649C11.6761 19.82 12.0449 20.1887 12.4999 20.1887C12.9549 20.1887 13.3237 19.82 13.3237 19.3649V13.4885C13.3237 13.0335 12.9549 12.6647 12.4999 12.6647Z" fill="#4fd2c2"/>
<path d="M15.4383 15.603H9.56182C9.1068 15.603 8.73804 15.9717 8.73804 16.4267C8.73804 16.8818 9.1068 17.2505 9.56182 17.2505H15.4383C15.8935 17.2505 16.262 16.8818 16.262 16.4267C16.262 15.9717 15.8933 15.603 15.4383 15.603Z" fill="#4fd2c2"/>
</g>
<defs>
<clipPath id="clip0_238_1022">
<rect width="24" height="24" fill="white" transform="translate(0.5 0.5)"/>
</clipPath>
</defs>
</svg>
