<svg width="24" height="24" viewBox="0 0 24 24" fill="none" xmlns="http://www.w3.org/2000/svg">
<g clip-path="url(#clip0_120_3680)">
<path d="M3.60699 12.9996H9.18423V10.9996H3.60699V1.84562C3.60701 1.75873 3.62807 1.67335 3.6681 1.59789C3.70813 1.52242 3.76574 1.45949 3.83527 1.41527C3.90479 1.37106 3.98383 1.34711 4.06458 1.34576C4.14534 1.34442 4.22502 1.36574 4.29578 1.40762L21.4569 11.5616C21.5298 11.6048 21.5906 11.6682 21.6329 11.7452C21.6752 11.8223 21.6975 11.9101 21.6975 11.9996C21.6975 12.0891 21.6752 12.177 21.6329 12.254C21.5906 12.331 21.5298 12.3945 21.4569 12.4376L4.29578 22.5916C4.22502 22.6335 4.14534 22.6548 4.06458 22.6535C3.98383 22.6521 3.90479 22.6282 3.83527 22.584C3.76574 22.5398 3.70813 22.4768 3.6681 22.4013C3.62807 22.3259 3.60701 22.2405 3.60699 22.1536V12.9996Z" fill="white"/>
</g>
<defs>
<clipPath id="clip0_120_3680">
<rect width="22.3089" height="24" fill="white" transform="translate(0.818359)"/>
</clipPath>
</defs>
</svg>
