<svg width="24" height="24" viewBox="0 0 24 24" fill="none" xmlns="http://www.w3.org/2000/svg">
<g clip-path="url(#clip0_238_955)">
<path d="M17.5017 1.14282H14.9237V2.73751H16.7044V6.29898C16.7044 8.98098 14.5223 11.1628 11.8406 11.1628H11.4685C8.78649 11.1628 6.6047 8.9807 6.6047 6.29898V2.73751H8.38543V1.14282H5.80735C5.36696 1.14282 5.01001 1.49978 5.01001 1.94017V6.29898C5.01001 9.86017 7.90731 12.7575 11.4685 12.7575H11.8406C15.4018 12.7575 18.2991 9.86017 18.2991 6.29898V1.94017C18.2991 1.49978 17.9421 1.14282 17.5017 1.14282Z" fill="#5563C4"/>
<path d="M14.8439 0C14.4035 0 14.0465 0.356953 14.0465 0.797344V3.02991C14.0465 3.4703 14.4035 3.82725 14.8439 3.82725C15.2842 3.82725 15.6412 3.4703 15.6412 3.02991V0.797344C15.6412 0.356953 15.2842 0 14.8439 0Z" fill="#5563C4"/>
<path d="M8.54478 0C8.10439 0 7.74744 0.356953 7.74744 0.797344V3.02991C7.74744 3.4703 8.10439 3.82725 8.54478 3.82725C8.98517 3.82725 9.34212 3.4703 9.34212 3.02991V0.797344C9.34212 0.356953 8.98517 0 8.54478 0Z" fill="#5563C4"/>
<path d="M12.505 16.4522V11.9339H10.9103V16.4522H8.3322C6.25114 16.4522 4.55811 18.1452 4.55811 20.226C4.55811 22.3071 6.26309 24.0001 8.35878 24.0001H8.73087C10.8119 24.0001 12.505 22.3071 12.505 20.226V18.0469H15.2159V16.4522H12.505ZM10.9103 20.2257C10.9103 21.4273 9.93246 22.4051 8.73087 22.4051H8.35878C7.12184 22.4051 6.15279 21.4481 6.15279 20.2257C6.15279 19.0241 7.13061 18.0466 8.3322 18.0466H10.9103V20.2257Z" fill="#5563C4"/>
<path d="M16.9436 14.7512C15.5663 14.7512 14.4456 15.8717 14.4456 17.2495C14.4456 18.6268 15.5661 19.7476 16.9436 19.7476C18.3212 19.7476 19.442 18.6268 19.442 17.2495C19.442 15.8719 18.3214 14.7512 16.9436 14.7512ZM16.9436 18.1526C16.4455 18.1526 16.0402 17.7473 16.0402 17.2493C16.0402 16.7509 16.4456 16.3456 16.9436 16.3456C17.4419 16.3456 17.8473 16.7509 17.8473 17.2493C17.8473 17.7473 17.4419 18.1526 16.9436 18.1526Z" fill="#5563C4"/>
</g>
<defs>
<clipPath id="clip0_238_955">
<rect width="24" height="24" fill="white"/>
</clipPath>
</defs>
</svg>
