
<svg version="1.0" xmlns="http://www.w3.org/2000/svg"
 width="512.000000pt" height="512.000000pt" viewBox="0 0 512.000000 512.000000"
 preserveAspectRatio="xMidYMid meet">
<metadata>
Created by potrace 1.16, written by Peter Selinger 2001-2019
</metadata>
<g transform="translate(0.000000,512.000000) scale(0.100000,-0.100000)"
fill="#000000" stroke="none">
<path d="M2240 5105 c-300 -39 -543 -112 -815 -245 -262 -128 -491 -296 -705
-516 -375 -386 -600 -833 -695 -1384 -26 -149 -32 -541 -11 -711 75 -592 332
-1109 757 -1524 206 -201 409 -345 654 -464 274 -134 526 -209 825 -247 134
-16 449 -19 588 -4 593 64 1133 327 1553 757 139 142 201 219 313 387 132 196
240 427 310 659 75 248 106 466 106 747 0 206 -14 355 -50 530 -137 659 -543
1250 -1115 1623 -323 210 -685 342 -1073 391 -149 19 -501 20 -642 1z m555
-930 c167 -44 280 -171 305 -340 13 -92 13 -1337 0 -1430 -21 -143 -104 -255
-238 -318 l-67 -32 -235 0 -235 0 -67 32 c-134 63 -217 175 -238 318 -13 93
-13 1338 0 1430 13 91 51 168 115 231 101 101 173 122 420 123 132 1 197 -3
240 -14z m-1286 -1403 c49 -37 59 -62 70 -182 14 -146 39 -240 101 -365 112
-229 321 -413 562 -493 132 -44 221 -55 368 -49 251 11 472 109 650 288 166
168 258 369 281 619 12 131 25 160 84 191 54 29 103 20 153 -26 l37 -34 -1
-123 c-1 -377 -222 -766 -561 -991 -138 -91 -322 -165 -473 -189 l-80 -12 0
-238 0 -238 -140 0 -140 0 0 240 0 240 -27 0 c-16 0 -74 11 -129 25 -386 93
-705 364 -864 732 -63 146 -94 287 -94 430 -1 116 0 122 24 148 51 56 125 67
179 27z"/>
</g>
</svg>
