<svg width="50" height="49" viewBox="0 0 50 49" fill="none" xmlns="http://www.w3.org/2000/svg">
<rect y="0.335327" width="50" height="48.2036" rx="15" fill="#7ACEFA" fill-opacity="0.15"/>
<path d="M32.0498 18.2453C31.133 17.3193 30.041 16.585 28.8374 16.0854C27.6339 15.5858 26.3429 15.3308 25.0398 15.3353C19.5798 15.3353 15.1298 19.7853 15.1298 25.2453C15.1298 26.9953 15.5898 28.6953 16.4498 30.1953L15.0498 35.3353L20.2998 33.9553C21.7498 34.7453 23.3798 35.1653 25.0398 35.1653C30.4998 35.1653 34.9498 30.7153 34.9498 25.2553C34.9498 22.6053 33.9198 20.1153 32.0498 18.2453ZM25.0398 33.4853C23.5598 33.4853 22.1098 33.0853 20.8398 32.3353L20.5398 32.1553L17.4198 32.9753L18.2498 29.9353L18.0498 29.6253C17.2276 28.3123 16.7909 26.7946 16.7898 25.2453C16.7898 20.7053 20.4898 17.0053 25.0298 17.0053C27.2298 17.0053 29.2998 17.8653 30.8498 19.4253C31.6173 20.1893 32.2255 21.098 32.6392 22.0988C33.0529 23.0995 33.2638 24.1724 33.2598 25.2553C33.2798 29.7953 29.5798 33.4853 25.0398 33.4853ZM29.5598 27.3253C29.3098 27.2053 28.0898 26.6053 27.8698 26.5153C27.6398 26.4353 27.4798 26.3953 27.3098 26.6353C27.1398 26.8853 26.6698 27.4453 26.5298 27.6053C26.3898 27.7753 26.2398 27.7953 25.9898 27.6653C25.7398 27.5453 24.9398 27.2753 23.9998 26.4353C23.2598 25.7753 22.7698 24.9653 22.6198 24.7153C22.4798 24.4653 22.5998 24.3353 22.7298 24.2053C22.8398 24.0953 22.9798 23.9153 23.0998 23.7753C23.2198 23.6353 23.2698 23.5253 23.3498 23.3653C23.4298 23.1953 23.3898 23.0553 23.3298 22.9353C23.2698 22.8153 22.7698 21.5953 22.5698 21.0953C22.3698 20.6153 22.1598 20.6753 22.0098 20.6653H21.5298C21.3598 20.6653 21.0998 20.7253 20.8698 20.9753C20.6498 21.2253 20.0098 21.8253 20.0098 23.0453C20.0098 24.2653 20.8998 25.4453 21.0198 25.6053C21.1398 25.7753 22.7698 28.2753 25.2498 29.3453C25.8398 29.6053 26.2998 29.7553 26.6598 29.8653C27.2498 30.0553 27.7898 30.0253 28.2198 29.9653C28.6998 29.8953 29.6898 29.3653 29.8898 28.7853C30.0998 28.2053 30.0998 27.7153 30.0298 27.6053C29.9598 27.4953 29.8098 27.4453 29.5598 27.3253Z" fill="black"/>
</svg>
